<?xml version="1.0"?>
<svg version="1.1" xmlns="http://www.w3.org/2000/svg" width="132px" height="40px" style=""><path fill="#000000" d="M8.28,27.44c0,2.184-0.456,3.84-1.68,4.8c-0.792,0.624-1.944,0.96-3.504,0.96c-0.432,0-1.2-0.072-1.728-0.168c-0.288-0.048-0.384-0.192-0.384-0.384c0-0.072,0-0.144,0.024-0.24l0.24-1.344c0.048-0.216,0.12-0.384,0.408-0.384c0.048,0,0.096,0.024,0.168,0.024c0.432,0.072,0.912,0.144,1.272,0.144c0.624,0,1.272-0.216,1.608-0.648c0.336-0.456,0.504-1.2,0.504-2.232l0-9.6l-2.712,0c-0.384,0-0.504-0.24-0.504-0.528l0-0.984c0-0.336,0.168-0.504,0.504-0.504l5.208,0c0.36,0,0.576,0.216,0.576,0.552l0,10.536z M23.868,27.128c0,3.456-2.112,6.12-5.856,6.12c-3.912,0-5.712-2.64-5.712-6.144c0-3.456,2.112-6.096,5.856-6.096c3.912,0,5.712,2.592,5.712,6.12z M20.868,27.128c0-1.968-0.624-3.84-2.736-3.84c-2.136,0-2.832,1.848-2.832,3.768c0,1.968,0.6,3.912,2.736,3.912c2.112,0,2.832-1.872,2.832-3.84z M38.592,27.152c0,3.312-1.704,6.096-5.28,6.096c-1.08,0-2.376-0.624-3.048-1.368l-0.096,0.792c-0.024,0.216-0.216,0.288-0.528,0.288l-1.44,0c-0.408,0-0.576-0.192-0.576-0.6l0-15.648c0-0.384,0.096-0.6,0.48-0.648l1.776-0.24c0.096-0.024,0.168-0.024,0.24-0.024c0.24,0,0.408,0.096,0.408,0.48l0,5.904c0.768-0.672,1.92-1.176,3.168-1.176c1.32,0,2.304,0.432,3.072,1.128c1.272,1.128,1.824,3,1.824,5.016z M35.592,27.176c0-1.944-0.6-3.72-2.592-3.72c-0.888,0-1.824,0.48-2.472,1.08l0,5.136c0.576,0.648,1.464,1.176,2.352,1.176c2.088,0,2.712-1.8,2.712-3.672z M60.096,28.112c0,3.336-2.712,5.136-5.832,5.136c-1.44,0-3.144-0.264-4.584-0.768c-0.312-0.12-0.408-0.264-0.408-0.456c0-0.096,0-0.192,0.048-0.312l0.504-1.56c0.072-0.24,0.192-0.384,0.432-0.384c0.096,0,0.216,0.024,0.36,0.072c1.128,0.408,2.376,0.72,3.576,0.72c1.296,0,2.76-0.624,2.76-2.136c0-1.104-0.816-1.704-1.752-2.16l-3.12-1.56c-1.704-0.84-2.832-2.256-2.832-4.128c0-2.928,2.88-4.536,5.544-4.536c1.584,0,2.904,0.24,4.296,0.84c0.312,0.144,0.48,0.288,0.48,0.48c0,0.096-0.024,0.192-0.072,0.312l-0.576,1.464c-0.096,0.264-0.24,0.36-0.408,0.36c-0.12,0-0.24-0.048-0.384-0.096c-0.984-0.408-2.208-0.744-3.168-0.744c-1.128,0-2.424,0.48-2.424,1.824c0,0.984,0.912,1.56,1.704,1.944l2.664,1.296c1.896,0.912,3.192,2.184,3.192,4.392z M75.036,26.984c0,1.824-0.552,3.48-1.56,4.656c-0.888,1.008-2.136,1.632-3.696,1.632c-1.104,0-2.208-0.408-2.904-1.128l0,5.376c0,0.48-0.216,0.624-0.624,0.624l-1.68,0c-0.384,0-0.576-0.216-0.576-0.624l0-15.648c0-0.408,0.192-0.552,0.576-0.552l1.44,0c0.408,0,0.624,0.096,0.648,0.456l0.024,0.648c0.696-0.792,2.064-1.392,3.36-1.392c1.584,0,2.688,0.6,3.48,1.464c1.032,1.128,1.512,2.808,1.512,4.488z M72.012,27.128c0-1.128-0.216-2.112-0.696-2.784c-0.456-0.648-1.128-0.984-1.968-0.984c-0.888,0-1.992,0.576-2.472,1.176l0,5.232c0.48,0.648,1.44,1.176,2.352,1.176c0.84,0,1.512-0.384,1.92-0.888c0.6-0.744,0.864-1.752,0.864-2.928z M90.096,32.504c0,0.288-0.192,0.456-0.48,0.456l-1.152,0c-1.248,0-1.8-0.6-1.968-1.416l-0.048,0c-0.6,0.888-2.16,1.704-3.48,1.704c-3.384,0-4.92-2.784-4.92-5.904c0-4.152,2.496-6.336,5.184-6.336c1.272,0,2.472,0.576,3.072,1.392l0.048-0.648c0.024-0.264,0.216-0.432,0.504-0.432l1.68,0c0.312,0,0.504,0.168,0.504,0.528l0,8.328c0,0.336,0.048,0.576,0.144,0.696c0.072,0.072,0.168,0.096,0.288,0.096l0.192,0c0.288,0,0.432,0.096,0.432,0.408l0,1.128z M86.136,29.24l0-4.632c-0.48-0.696-1.464-1.224-2.376-1.224c-1.464,0-2.712,1.248-2.712,3.768c0,2.016,0.768,3.72,2.544,3.72c1.176,0,2.184-0.888,2.544-1.632z M102.372,32.144c0,0.192-0.12,0.288-0.336,0.384c-1.152,0.528-2.208,0.72-3.48,0.72c-3.696,0-5.736-2.304-5.736-6c0-3.72,2.232-6.24,5.952-6.24c1.08,0,2.208,0.216,3.216,0.672c0.192,0.096,0.288,0.144,0.288,0.336c0,0.072-0.024,0.216-0.048,0.288l-0.312,1.272c-0.048,0.216-0.144,0.336-0.288,0.336c-0.072,0-0.168-0.048-0.264-0.096c-0.696-0.288-1.464-0.528-2.304-0.528c-2.064,0-3.24,1.464-3.24,3.816c0,2.304,1.056,3.888,3.12,3.888c1.032,0,1.68-0.192,2.52-0.528c0.072-0.024,0.168-0.072,0.24-0.072c0.144,0,0.24,0.12,0.288,0.288l0.312,1.056c0.048,0.168,0.072,0.312,0.072,0.408z M115.944,27.104c0,0.576-0.192,0.696-0.792,0.696l-7.032,0c0.192,1.848,1.536,3.12,3.432,3.12c1.008,0,2.064-0.24,2.952-0.576c0.096-0.024,0.168-0.072,0.264-0.072c0.168,0,0.288,0.096,0.336,0.288l0.336,1.224c0.024,0.12,0.048,0.216,0.048,0.288c0,0.168-0.096,0.288-0.384,0.408c-1.176,0.528-2.784,0.768-4.032,0.768c-3.768,0-6-2.4-6-6.144c0-3.6,2.376-6.096,5.952-6.096c1.464,0,2.664,0.552,3.504,1.44c1.104,1.152,1.416,2.664,1.416,4.296l0,0.36z M113.088,25.904l0-0.264c-0.048-1.248-0.768-2.4-2.232-2.4c-1.56,0-2.496,1.248-2.688,2.664l4.92,0z"/><path fill="#" d=""/></svg>
