<svg xmlns="http://www.w3.org/2000/svg" xml:space="preserve" width="100" height="60" data-id="lg_DSeuVyuZfnTIKLKojU" data-version="1" viewBox="0 0 1500 214"><g data-padding="20"><path fill="#9fa6b2" d="M646.12 92.121a2.88 2.88 0 0 0 2.881-2.88v-24.2a14.404 14.404 0 0 1 14.404-14.403h133.12a2.88 2.88 0 0 0 0-5.762H782.64V11.95a2.88 2.88 0 0 0-2.881-2.881h-59.372a2.88 2.88 0 0 0-2.881 2.88V44.79h-54.102a20.165 20.165 0 0 0-20.165 20.165v24.198a2.88 2.88 0 0 0 2.88 2.968M765.355 44.79H734.79V26.353h30.565Zm-42.088-29.96h53.611v29.96h-5.762V23.472a2.88 2.88 0 0 0-2.88-2.88h-36.327a2.88 2.88 0 0 0-2.881 2.88V44.79h-5.762Z"/><path fill="#9fa6b2" d="M836.624 187.647H698.867a2.88 2.88 0 0 0 0 5.762h137.758a8.64 8.64 0 0 0 8.642-8.642V65.013a8.64 8.64 0 0 0-8.642-8.642h-173.25a8.64 8.64 0 0 0-8.642 8.642v59.834a2.88 2.88 0 0 0 2.881 2.88h73.891v26.792a2.88 2.88 0 0 0 2.881 2.88h31.371a2.88 2.88 0 0 0 2.881-2.88v-26.792h58.595a2.88 2.88 0 0 0 0-5.761h-58.594v-14.98a2.88 2.88 0 0 0-2.88-2.88h-31.373a2.88 2.88 0 0 0-2.88 2.88v14.98h-71.012V65.013a2.88 2.88 0 0 1 2.88-2.881h173.25a2.88 2.88 0 0 1 2.881 2.88v119.755a2.88 2.88 0 0 1-2.88 2.88m-73.748-77.78v41.77h-25.61v-41.77Zm-105.263 26.186a2.88 2.88 0 0 0-2.88 2.881v45.89a8.64 8.64 0 0 0 8.642 8.643h21.374a2.88 2.88 0 0 0 0-5.762h-21.375a2.88 2.88 0 0 1-2.881-2.88v-45.892a2.88 2.88 0 0 0-2.88-2.88"/><path fill="#9fa6b2" d="M836.624 44.848h-23.247a2.88 2.88 0 0 0 0 5.762h23.247a14.404 14.404 0 0 1 14.404 14.403v119.754a14.404 14.404 0 0 1-14.404 14.403H663.376a14.404 14.404 0 0 1-14.404-14.403v-77.781a2.88 2.88 0 1 0-5.762 0v77.78a20.165 20.165 0 0 0 20.166 20.166h173.248a20.165 20.165 0 0 0 20.166-20.165V65.013a20.165 20.165 0 0 0-20.166-20.165"/><path fill="#9fa6b2" d="M750 145.559a8.642 8.642 0 1 0 0-17.285 8.642 8.642 0 0 0 0 17.285m0-11.523a2.88 2.88 0 1 1 0 5.761 2.88 2.88 0 0 1 0-5.761"/><path d="M712.18 107.083q0 1.756-.668 3.301-.658 1.546-1.82 2.707-1.152 1.153-2.698 1.82-1.545.659-3.301.659h-.988q-1.765 0-3.32-.659-1.554-.667-2.716-1.82-1.152-1.161-1.82-2.707-.658-1.545-.658-3.301v-1.372l3.11-.512v1.884q0 1.161.429 2.158.439.997 1.198 1.756t1.756 1.198q1.006.43 2.158.43h.704q1.134 0 2.15-.43 1.006-.439 1.755-1.198t1.18-1.756q.44-.997.44-2.158V80.507h3.109Zm6.237 66.504v.924q0 1.564-.64 2.936-.631 1.371-1.692 2.396-1.061 1.033-2.46 1.618-1.409.595-2.973.595h-2.204q-1.564 0-2.972-.595-1.4-.585-2.46-1.618-1.06-1.025-1.701-2.396-.631-1.372-.631-2.936v-1.225l2.771-.449v1.674q0 1.024.412 1.92.42.888 1.124 1.564.714.668 1.647 1.061.932.384 1.957.384h1.93q1.033 0 1.947-.384.924-.393 1.628-1.06.713-.677 1.134-1.564.412-.897.412-1.92v-.925q0-1.582-.622-2.633t-1.646-1.793q-1.034-.74-2.332-1.253-1.29-.512-2.662-1.033-1.371-.512-2.67-1.134t-2.323-1.555q-1.033-.933-1.655-2.277-.622-1.354-.622-3.33v-.575q0-1.564.594-2.936.586-1.372 1.619-2.405 1.024-1.024 2.405-1.61 1.381-.594 2.954-.594h1.966q1.564 0 2.936.594 1.372.586 2.405 1.61 1.024 1.033 1.619 2.405.585 1.372.585 2.936v.795l-2.762.449v-1.244q0-1.024-.384-1.92-.393-.888-1.051-1.555-.668-.659-1.555-1.043-.887-.393-1.92-.393h-1.71q-1.034 0-1.921.393-.887.384-1.564 1.043-.677.667-1.061 1.554-.384.897-.384 1.92v.577q0 1.481.613 2.487.621 1.006 1.655 1.729 1.024.713 2.323 1.244l2.67 1.07q1.372.548 2.67 1.198 1.3.658 2.324 1.61 1.033.95 1.655 2.322t.622 3.347m19.717 2.021q0 1.336-.503 2.506-.503 1.18-1.381 2.058-.887.887-2.058 1.39-1.18.503-2.515.503h-.658q-1.482 0-2.744-.604-1.27-.603-2.167-1.673v10.636h-2.634v-30.737h.878l1.436 2.231q.896-1.225 2.259-1.939 1.362-.722 2.972-.722h.658q1.336 0 2.515.503 1.17.503 2.058 1.38.878.879 1.381 2.058t.503 2.506Zm-2.634.156v-10.206q0-.796-.302-1.49t-.814-1.208q-.52-.521-1.216-.814-.695-.302-1.49-.302h-1.757q-.795 0-1.49.302-.695.293-1.207.814-.513.512-.814 1.207t-.302 1.49v10.207q0 .786.302 1.49.301.696.814 1.208t1.207.814 1.49.302h1.756q.796 0 1.491-.302t1.216-.814q.513-.512.814-1.207.302-.705.302-1.491m22.57 5.871h-.886l-1.454-2.185q-.897 1.18-2.25 1.893-1.354.722-2.954.722h-.668q-1.326 0-2.506-.503t-2.057-1.39q-.878-.878-1.39-2.058-.503-1.17-.503-2.506v-.21q0-1.326.503-2.506.512-1.18 1.39-2.057t2.057-1.39q1.18-.503 2.506-.503h5.57v-3.384q0-.796-.302-1.49-.293-.696-.814-1.208-.512-.521-1.207-.814-.695-.302-1.49-.302h-1.546q-.787 0-1.491.302-.695.293-1.207.814-.512.512-.814 1.207t-.302 1.49v.796l-2.634-.43v-.219q0-1.326.503-2.506t1.381-2.057 2.058-1.381 2.506-.503h1.545q1.326 0 2.506.503t2.058 1.38 1.38 2.058q.513 1.18.513 2.506Zm-2.642-5.871v-4.765h-5.57q-.795 0-1.49.302t-1.208.823q-.52.53-.823 1.226-.292.695-.292 1.49v.924q0 .786.292 1.49.302.696.823 1.208.513.512 1.208.814t1.49.302h1.756q.796 0 1.49-.302t1.208-.814q.521-.512.814-1.207.302-.705.302-1.491m22.58-.156q0 1.336-.504 2.506-.503 1.18-1.38 2.058-.878.887-2.058 1.39t-2.506.503h-1.756q-1.335 0-2.515-.503t-2.058-1.39q-.877-.878-1.38-2.058-.503-1.17-.503-2.506v-9.904q0-1.326.503-2.506t1.38-2.057 2.058-1.381 2.515-.503h1.756q1.326 0 2.506.503t2.058 1.38 1.38 2.058.503 2.506v.887l-2.633.42v-1.453q0-.796-.302-1.49t-.814-1.208q-.512-.521-1.207-.814-.704-.302-1.491-.302h-1.756q-.795 0-1.49.302-.705.293-1.217.814-.512.512-.814 1.207t-.302 1.49v10.207q0 .786.302 1.49.302.696.814 1.208t1.216.814q.696.302 1.491.302h1.756q.787 0 1.49-.302.696-.302 1.208-.814t.814-1.207q.302-.705.302-1.491v-1.463l2.633.43Zm19.927 0q0 1.336-.503 2.506-.503 1.18-1.38 2.058-.879.887-2.059 1.39t-2.514.503h-1.756q-1.326 0-2.506-.503t-2.058-1.39q-.878-.878-1.38-2.058-.504-1.17-.504-2.506v-9.904q0-1.326.503-2.506t1.381-2.057 2.058-1.381 2.506-.503h1.756q1.335 0 2.514.503t2.058 1.38 1.381 2.058.503 2.506v5.167H785.91v4.893q0 .786.302 1.49.302.696.814 1.208t1.207.814q.704.302 1.49.302h1.757q.795 0 1.49-.302t1.217-.814q.512-.512.813-1.207.302-.705.302-1.491v-1.463l2.634.43Zm-2.634-6.794v-3.256q0-.796-.302-1.49t-.813-1.208q-.522-.521-1.217-.814-.695-.302-1.49-.302h-1.756q-.787 0-1.491.302-.695.293-1.207.814-.512.512-.814 1.207t-.302 1.49v3.257Zm-38.639-75.45q0 1.757-.667 3.302-.659 1.546-1.82 2.707-1.152 1.153-2.698 1.82-1.546.659-3.301.659h-2.46q-1.766 0-3.32-.659-1.555-.667-2.707-1.82-1.162-1.161-1.82-2.707-.668-1.545-.668-3.301V74.8q0-1.765.668-3.31.658-1.537 1.82-2.699 1.152-1.152 2.707-1.82 1.554-.658 3.32-.658h2.46q1.755 0 3.301.658 1.546.668 2.698 1.82 1.161 1.162 1.82 2.698.667 1.546.667 3.31Zm-3.11 0V74.8q0-1.162-.438-2.158-.43-1.006-1.18-1.747-.75-.75-1.747-1.19-1.006-.429-2.158-.429h-2.167q-1.162 0-2.159.43-1.006.439-1.765 1.189-.759.74-1.188 1.747-.44.996-.44 2.158v18.565q0 1.161.44 2.158.43.997 1.188 1.756t1.765 1.198q.997.43 2.159.43h2.167q1.152 0 2.158-.43.997-.439 1.747-1.198t1.18-1.756q.439-.997.439-2.158m50.491 12.328q0 1.765-.658 3.301-.668 1.546-1.82 2.707-1.162 1.152-2.716 1.82-1.555.659-3.32.659h-10.947V79.6h10.947q1.765 0 3.32.668 1.554.658 2.716 1.82 1.152 1.152 1.82 2.716.658 1.555.658 3.31v.339q0 1.225-.32 2.35-.33 1.125-.933 2.085-.603.97-1.417 1.747-.823.787-1.838 1.317 1.015.53 1.838 1.317.814.777 1.417 1.756t.933 2.103q.32 1.116.32 2.35Zm-3.11 0v-2.726q0-1.152-.43-2.158-.438-.997-1.197-1.747t-1.756-1.18q-1.006-.438-2.158-.438H787.7v13.772h7.692q1.152 0 2.158-.43.997-.438 1.756-1.188.759-.741 1.198-1.747.43-.997.43-2.158m0-16.755v-.823q0-1.152-.43-2.158-.44-.997-1.198-1.756t-1.756-1.198q-1.006-.43-2.158-.43H787.7v11.908h7.692q1.152 0 2.158-.43.997-.44 1.756-1.198t1.198-1.756q.43-1.006.43-2.159"/><path fill="transparent" stroke="transparent" d="M633 0h234v214H633z"/></g></svg>